<svg width="14" height="20" viewBox="0 0 14 20" fill="none" xmlns="http://www.w3.org/2000/svg">
<path fill-rule="evenodd" clip-rule="evenodd" d="M13.4136 19.4269C13.5995 19.2723 13.747 19.0886 13.8476 18.8864C13.9482 18.6842 14 18.4675 14 18.2486C14 18.0297 13.9482 17.8129 13.8476 17.6107C13.747 17.4086 13.5995 17.2249 13.4136 17.0702L4.8776 9.9569L13.4136 2.84524C13.7886 2.53272 13.9993 2.10886 13.9993 1.6669C13.9993 1.22494 13.7886 0.801083 13.4136 0.48857C13.0386 0.176057 12.53 0.000488281 11.9996 0.000488281C11.4692 0.000488281 10.9606 0.176057 10.5856 0.48857L0.685598 8.73857C0.494899 8.89814 0.345415 9.08855 0.246355 9.29808C0.147295 9.50761 0.100754 9.73182 0.109598 9.9569C0.100202 10.1825 0.146472 10.4074 0.245548 10.6175C0.344625 10.8277 0.494398 11.0186 0.685598 11.1786L10.5856 19.4286C10.7712 19.5835 10.9916 19.7064 11.2342 19.7902C11.4768 19.8741 11.7369 19.9172 11.9996 19.9172C12.2623 19.9172 12.5224 19.8741 12.765 19.7902C13.0076 19.7064 13.228 19.5818 13.4136 19.4269Z" fill="black"/>
</svg>
