<svg width="24" height="24" viewBox="0 0 24 24" fill="none" xmlns="http://www.w3.org/2000/svg">
<mask id="mask0_36_3004" style="mask-type:luminance" maskUnits="userSpaceOnUse" x="0" y="0" width="24" height="24">
<path d="M24 0H0V24H24V0Z" fill="white"/>
</mask>
<g mask="url(#mask0_36_3004)">
<path d="M12.1028 2.86475C14.3628 2.86475 16.1978 6.95814 16.1978 11.9997C16.1978 17.0414 14.3628 21.1347 12.1028 21.1347C9.84278 21.1347 8.00781 17.0414 8.00781 11.9997C8.00781 6.95814 9.84278 2.86475 12.1028 2.86475Z" stroke="#232328" stroke-width="1.47"/>
<path d="M12.1033 2.75977C17.2028 2.75977 21.3433 6.90021 21.3433 11.9998C21.3433 17.0993 17.2028 21.2398 12.1033 21.2398C7.00373 21.2398 2.86328 17.0993 2.86328 11.9998C2.86328 6.90021 7.00373 2.75977 12.1033 2.75977Z" stroke="#232328" stroke-width="1.47"/>
<path d="M11.9978 7.96777C17.0085 7.96777 21.0698 9.7731 21.0698 11.9998C21.0698 14.2264 17.0085 16.0318 11.9978 16.0318C6.98701 16.0318 2.92578 14.2264 2.92578 11.9998C2.92578 9.7731 6.98701 7.96777 11.9978 7.96777Z" stroke="#232328" stroke-width="1.512"/>
</g>
</svg>
