<svg width="14" height="20" viewBox="0 0 14 20" fill="none" xmlns="http://www.w3.org/2000/svg">
<path fill-rule="evenodd" clip-rule="evenodd" d="M0.586403 0.573097C0.400511 0.727743 0.253036 0.911415 0.152414 1.11361C0.0517929 1.3158 0 1.53254 0 1.75143C0 1.97032 0.0517929 2.18706 0.152414 2.38925C0.253036 2.59144 0.400511 2.77512 0.586403 2.92976L9.1224 10.0431L0.586403 17.1548C0.211387 17.4673 0.000703812 17.8911 0.000703812 18.3331C0.000703812 18.7751 0.211387 19.1989 0.586403 19.5114C0.961419 19.8239 1.47005 19.9995 2.0004 19.9995C2.53076 19.9995 3.03939 19.8239 3.4144 19.5114L13.3144 11.2614C13.5051 11.1019 13.6546 10.9114 13.7536 10.7019C13.8527 10.4924 13.8992 10.2682 13.8904 10.0431C13.8998 9.81746 13.8535 9.59262 13.7545 9.38248C13.6554 9.17234 13.5056 8.98139 13.3144 8.82143L3.4144 0.57143C3.22883 0.416521 3.00842 0.293623 2.76579 0.209772C2.52316 0.125921 2.26307 0.0827618 2.0004 0.0827618C1.73774 0.0827618 1.47765 0.125921 1.23502 0.209772C0.992386 0.293623 0.771978 0.418186 0.586403 0.573097Z" fill="black"/>
</svg>
